<?xml version="1.0" encoding="iso-8859-1"?>
<!-- Generator: Adobe Illustrator 19.0.0, SVG Export Plug-In . SVG Version: 6.00 Build 0)  -->
<svg xmlns="http://www.w3.org/2000/svg" xmlns:xlink="http://www.w3.org/1999/xlink" version="1.1" id="Capa_1" x="0px" y="0px" viewBox="0 0 503.586 503.586" style="enable-background:new 0 0 503.586 503.586;" xml:space="preserve" width="512" height="512">
<g>
	<circle style="fill:#E95B2D;" cx="192.78" cy="192.817" r="185.317"/>
	<path style="fill:#FABA45;" d="M323.819,323.857c-4.406,4.406-8.982,8.538-13.699,12.408l36.491,36.491l26.109-26.109   l-36.491-36.491C332.358,314.875,328.227,319.451,323.819,323.857z"/>
	<circle style="fill:#FABA45;" cx="192.78" cy="192.817" r="150.145"/>
	<path style="fill:#E95B2D;" d="M333.589,385.78l99.503,99.504c14.403,14.403,37.755,14.403,52.158,0   c14.402-14.403,14.402-37.756,0-52.159l-99.504-99.503L333.589,385.78z"/>
	<path style="fill:#E95B2D;" d="M247.395,243.547c0,28.211-22.868,51.08-51.079,51.08h-7.068c-28.211,0-51.079-22.869-51.079-51.08   v-36.734c0-28.21,22.868-51.079,51.079-51.079h7.068c28.211,0,51.079,22.869,51.079,51.079V243.547z"/>
	<circle style="fill:#E95B2D;" cx="192.781" cy="132.859" r="22.876"/>
	<g>
		<path style="fill:#0F2639;" d="M304.252,81.345C274.476,51.57,234.889,35.172,192.78,35.172    c-42.107,0-81.695,16.398-111.473,46.173c-61.464,61.466-61.464,161.478,0,222.944c29.775,29.775,69.363,46.173,111.472,46.173    s81.697-16.398,111.475-46.173C365.719,242.823,365.718,142.811,304.252,81.345z M192.779,335.462    c-38.102,0-73.923-14.837-100.864-41.779c-55.616-55.617-55.616-146.114-0.001-201.731c26.943-26.942,62.766-41.78,100.866-41.78    c38.102,0,73.923,14.837,100.864,41.779c55.618,55.617,55.619,146.113,0.003,201.732    C266.703,320.625,230.881,335.462,192.779,335.462z"/>
		<path style="fill:#0F2639;" d="M490.554,427.822L385.746,323.016l-13.024,13.025l-26.468-26.467    c25.517-33.399,39.344-74.012,39.344-116.756c0-51.503-20.057-99.924-56.475-136.343C292.705,20.056,244.284,0,192.78,0    C141.277,0,92.857,20.056,56.438,56.475c-75.178,75.18-75.178,197.506,0,272.685c36.419,36.418,84.84,56.475,136.344,56.475    c42.745,0,83.358-13.827,116.757-39.344l26.467,26.467l-13.022,13.023l104.807,104.807c8.382,8.382,19.527,12.999,31.382,12.999    s23-4.617,31.383-12.999C507.858,473.282,507.858,445.125,490.554,427.822z M67.045,318.553    c-69.33-69.331-69.33-182.141,0-251.472C100.63,33.496,145.283,15,192.78,15s92.151,18.496,125.735,52.081    c33.586,33.585,52.082,78.239,52.082,125.736c0,41.275-13.975,80.399-39.675,111.982l-0.492,0.6    c-3.427,4.177-7.066,8.213-10.824,12.037c-0.365,0.372-0.722,0.749-1.091,1.118c-0.191,0.19-0.385,0.373-0.576,0.562    c-3.986,3.95-8.209,7.768-12.576,11.351l-0.645,0.529c-31.575,25.677-70.681,39.639-111.938,39.639    C145.284,370.634,100.63,352.138,67.045,318.553z M321.336,336.521c1.128-1.011,2.244-2.038,3.351-3.078    c0.215-0.201,0.433-0.398,0.645-0.6c1.276-1.21,2.542-2.435,3.791-3.684c1.243-1.243,2.463-2.503,3.668-3.774    c0.227-0.239,0.448-0.484,0.674-0.725c1.014-1.08,2.016-2.168,3.001-3.268c0.063-0.069,0.127-0.136,0.189-0.206l25.459,25.458    l-15.503,15.503l-25.459-25.459C321.214,336.635,321.274,336.577,321.336,336.521z M479.946,479.98    c-5.549,5.549-12.928,8.605-20.775,8.605c-7.848,0-15.227-3.056-20.775-8.605l-94.2-94.201l41.551-41.551l17.47,17.47    l-25.587,25.587l10.608,10.607l25.587-25.587l66.123,66.123C491.402,449.884,491.402,468.524,479.946,479.98z"/>
		<path style="fill:#0F2639;" d="M216.49,151.815c4.167-5.2,6.667-11.79,6.667-18.956c0-5.847-1.665-11.311-4.54-15.95    l20.598-20.597l-10.605-10.606l-20.783,20.783c-4.439-2.542-9.573-4.004-15.046-4.004c-5.476,0-10.612,1.464-15.054,4.009    l-20.788-20.788l-10.605,10.606l20.606,20.605c-2.872,4.637-4.534,10.098-4.534,15.941c0,7.166,2.5,13.756,6.667,18.956    c-22.391,8.24-38.404,29.783-38.404,54.998v36.734c0,32.301,26.278,58.58,58.579,58.58h7.068c32.301,0,58.579-26.279,58.579-58.58    v-36.734C254.895,181.599,238.881,160.055,216.49,151.815z M208.157,132.859c0,8.478-6.898,15.375-15.377,15.375    c-8.477,0-15.375-6.897-15.375-15.375c0-8.478,6.898-15.375,15.375-15.375C201.259,117.484,208.157,124.381,208.157,132.859z     M145.668,243.547v-36.734c0-22.692,17.437-41.379,39.612-43.391v36.802h-20.377v15h20.377v19.913h-20.377v15h20.377v36.801    C163.105,284.927,145.668,266.239,145.668,243.547z M239.895,243.547c0,22.693-17.437,41.381-39.614,43.392v-36.801h20.377v-15    H200.28v-19.913h20.377v-15H200.28v-36.802c22.178,2.011,39.614,20.698,39.614,43.391V243.547z"/>
	</g>
</g>















</svg>
